<?xml version="1.0" standalone="no"?>
<!DOCTYPE svg PUBLIC "-//W3C//DTD SVG 20010904//EN"
 "http://www.w3.org/TR/2001/REC-SVG-20010904/DTD/svg10.dtd">
<svg version="1.0" xmlns="http://www.w3.org/2000/svg"
 width="1024.000000pt" height="1024.000000pt" viewBox="0 0 1024.000000 1024.000000"
 preserveAspectRatio="xMidYMid meet">

<g transform="translate(0.000000,1024.000000) scale(0.100000,-0.100000)"
fill="#000000" stroke="none">
<path d="M4825 9130 c-598 -32 -1137 -159 -1655 -390 -229 -102 -473 -247
-713 -424 -222 -163 -487 -411 -487 -456 0 -14 61 -82 189 -208 103 -103 219
-227 257 -276 74 -97 182 -274 283 -466 74 -139 82 -150 119 -150 36 0 70 23
182 121 174 154 318 248 509 334 103 46 227 95 240 95 4 0 -1 -33 -12 -72 -28
-106 -34 -283 -13 -389 37 -184 157 -353 297 -419 124 -57 272 -62 372 -10 36
19 60 21 330 23 213 1 298 5 314 15 19 10 34 8 100 -15 105 -36 256 -38 350
-4 60 21 63 21 113 5 44 -14 83 -16 278 -11 246 6 297 14 400 66 63 32 139
107 171 168 35 70 45 159 27 252 -8 44 -23 100 -34 124 l-19 43 40 121 40 120
86 -34 c285 -115 444 -216 623 -395 157 -157 162 -159 228 -61 25 36 82 118
128 182 l83 116 -6 68 -6 68 188 188 c103 103 241 232 306 286 110 91 137 123
137 162 0 35 -211 229 -385 355 -184 132 -514 332 -715 434 -170 85 -295 136
-477 193 l-133 42 0 37 c0 55 -19 112 -45 138 -20 20 -34 24 -83 24 -50 0 -72
-7 -145 -44 l-85 -43 -72 13 c-107 20 -368 52 -520 63 -196 15 -612 21 -785
11z m1614 -106 c2 -2 -3 -18 -12 -36 -15 -31 -15 -34 4 -55 25 -26 19 -56 -17
-79 -30 -20 -48 -8 -64 42 -22 65 19 152 64 138 12 -4 23 -8 25 -10z m-1463
-36 c-37 -138 -43 -908 -6 -908 4 0 76 36 158 80 83 44 152 80 154 80 5 0 -1
-279 -7 -326 l-6 -40 -157 -2 c-138 -2 -244 -10 -348 -27 l-31 -5 -6 172 c-11
284 -50 634 -97 868 -11 52 -18 96 -15 98 6 6 235 29 304 31 61 1 63 0 57 -21z
m563 7 c215 -20 481 -52 488 -58 3 -3 -4 -30 -15 -59 -17 -46 -29 -93 -48
-185 -4 -20 -6 -20 -31 -8 -45 21 -206 83 -235 90 l-28 7 0 -100 c0 -55 3
-107 6 -116 5 -13 25 -16 110 -16 l104 0 -1 -42 c0 -24 -8 -79 -17 -123 l-17
-80 -102 -14 -103 -15 0 -56 c0 -30 9 -129 20 -219 12 -90 19 -166 16 -168 -3
-3 -33 0 -68 6 -35 6 -103 14 -151 17 -48 4 -90 11 -93 15 -2 4 3 57 13 116
25 152 25 524 0 678 -18 112 -58 296 -72 328 -9 22 4 22 224 2z m-1346 -107
c-16 -87 -7 -377 16 -532 21 -143 61 -319 78 -350 7 -12 36 4 148 78 77 51
141 92 143 91 3 -3 47 -265 54 -319 l3 -30 -95 -17 c-111 -20 -270 -60 -354
-89 -33 -11 -62 -20 -66 -20 -4 0 -12 44 -19 98 -28 222 -80 415 -178 672 -43
112 -122 291 -150 341 -5 8 371 117 410 118 15 1 16 -5 10 -41z m1992 -38 c0
-41 -2 -45 -25 -45 -30 0 -37 24 -19 66 19 46 44 34 44 -21z m-2586 -192 c12
-62 24 -122 27 -134 5 -18 -1 -23 -42 -33 -26 -7 -89 -26 -140 -42 l-94 -30
62 -124 62 -123 60 46 c34 26 80 64 104 86 23 21 44 37 45 35 2 -2 21 -69 44
-147 25 -92 36 -145 29 -147 -6 -2 -49 -10 -95 -18 -46 -9 -85 -18 -88 -21 -8
-8 122 -226 135 -226 4 0 50 44 104 97 84 84 98 94 104 77 4 -10 31 -77 61
-148 29 -72 50 -133 46 -137 -5 -4 -56 -26 -115 -49 -58 -23 -155 -69 -214
-101 -59 -32 -111 -59 -114 -59 -3 0 -25 48 -49 108 -80 199 -298 603 -448
830 -41 62 -73 115 -71 117 15 14 540 253 559 254 4 1 16 -50 28 -111z m3232
57 c218 -74 335 -132 415 -207 113 -107 146 -225 99 -358 -37 -103 -149 -195
-295 -240 -42 -13 -57 -23 -62 -41 -3 -13 -21 -112 -38 -219 -17 -107 -37
-221 -43 -253 l-12 -57 -122 71 -123 72 19 26 c40 57 110 237 137 350 13 57
13 66 -1 87 -19 30 -45 30 -73 2 -36 -39 -118 -198 -157 -306 -21 -57 -40
-101 -44 -100 -144 72 -208 105 -216 112 -8 7 -3 25 16 60 15 28 43 92 63 141
19 50 60 151 91 225 141 337 175 454 175 605 0 47 2 85 4 85 2 0 77 -25 167
-55z m-540 -285 l91 0 -7 -27 c-3 -16 -24 -66 -45 -113 -75 -164 -113 -314
-126 -490 -9 -121 -9 -123 -42 -106 -15 7 -85 32 -157 56 -71 23 -131 43 -133
44 -1 2 18 43 43 92 61 122 109 260 135 385 11 57 26 125 31 150 l11 47 54
-19 c37 -13 81 -19 145 -19z m-3331 -337 c107 -207 260 -396 465 -576 44 -39
81 -74 83 -78 2 -4 -50 -40 -115 -80 -65 -40 -126 -79 -136 -87 -9 -9 -19 -13
-20 -11 -2 2 -13 35 -26 73 -12 37 -35 88 -51 111 -33 48 -188 195 -206 195
-12 0 -134 -104 -146 -125 -11 -18 114 -192 218 -304 30 -32 54 -61 54 -63 0
-6 -241 -221 -243 -216 -1 1 -26 51 -54 109 -134 269 -352 554 -568 740 l-95
82 27 17 c16 9 82 60 148 113 66 53 123 97 126 97 4 0 23 -42 43 -92 31 -78
121 -256 155 -307 7 -10 30 1 110 55 80 55 101 74 101 92 0 50 -63 146 -162
244 l-97 97 67 64 c37 36 94 88 126 116 l59 51 38 -100 c20 -54 65 -152 99
-217z m5056 -75 c122 -92 124 -93 124 -104 0 -5 -19 -21 -43 -36 -24 -15 -69
-50 -101 -78 -31 -27 -60 -50 -64 -50 -4 0 -47 39 -96 86 -48 46 -92 84 -96
82 -3 -2 -35 -33 -70 -71 -73 -78 -75 -71 40 -155 41 -30 77 -56 79 -58 2 -2
-29 -39 -70 -81 -41 -43 -87 -95 -103 -115 -16 -21 -31 -38 -35 -38 -4 0 -33
36 -65 80 -33 44 -63 80 -67 80 -5 0 -13 -9 -20 -21 -6 -12 -37 -58 -70 -104
-32 -45 -59 -87 -59 -92 0 -6 47 -36 105 -68 58 -32 108 -62 111 -67 4 -6 -25
-55 -62 -110 -38 -54 -76 -110 -84 -124 -8 -13 -18 -24 -21 -24 -3 0 -39 39
-80 87 -71 83 -214 211 -278 249 -17 10 -31 22 -31 26 0 5 26 37 58 71 180
195 343 419 431 595 49 97 111 276 111 319 0 30 0 30 180 -88 98 -65 223 -151
276 -191z m-1881 -479 c131 -44 195 -135 181 -259 -7 -59 -50 -158 -72 -167
-22 -8 -17 -33 11 -55 48 -38 78 -104 83 -184 10 -152 -64 -248 -223 -290 -33
-9 -111 -14 -227 -14 l-178 0 1 23 c0 12 7 56 15 97 8 42 17 165 21 280 5 175
2 232 -17 388 -12 101 -20 185 -18 187 12 12 155 23 248 20 75 -2 125 -10 175
-26z m-545 -379 c0 -375 -1 -403 -20 -453 -33 -89 -109 -142 -217 -153 -120
-13 -221 34 -262 121 -33 71 -39 124 -51 455 -5 168 -13 329 -16 358 l-7 52
117 0 116 0 0 -343 c-1 -215 3 -353 9 -370 13 -32 50 -52 84 -43 43 10 50 49
43 224 -9 200 -24 433 -32 494 l-6 47 73 4 c41 1 95 4 122 5 l47 2 0 -400z
m-1244 298 c-3 -50 -6 -108 -6 -130 l0 -38 -42 0 c-147 0 -215 -97 -206 -294
5 -105 25 -159 72 -187 38 -23 119 -25 171 -3 20 8 39 13 42 10 3 -2 0 -58 -6
-122 -14 -155 -18 -159 -144 -159 -81 0 -99 3 -149 28 -93 46 -156 136 -196
279 -22 82 -22 268 1 354 58 221 212 350 421 353 l49 1 -7 -92z m375 31 c-1
-30 -7 -97 -12 -149 -5 -52 -12 -197 -16 -322 -5 -193 -4 -228 8 -228 8 0 64
13 124 30 61 16 114 30 118 30 4 0 6 -57 5 -127 l-3 -128 -218 -14 c-120 -8
-219 -12 -222 -10 -5 5 -13 265 -21 656 l-6 312 114 3 c62 2 117 3 123 3 5 -1
8 -26 6 -56z"/>
<path d="M6900 8413 c-7 -21 -30 -82 -52 -137 -33 -80 -38 -100 -27 -107 23
-14 122 -10 173 7 118 41 119 182 1 246 -68 37 -81 36 -95 -9z"/>
<path d="M5956 7393 c-17 -4 -18 -12 -12 -65 3 -34 6 -83 6 -109 l0 -49 35 0
c171 0 193 199 25 223 -19 3 -43 3 -54 0z"/>
<path d="M5958 6934 c-1 -38 -2 -97 -4 -132 -2 -47 1 -65 12 -69 28 -10 82 8
119 40 34 29 39 39 43 89 4 52 2 58 -30 93 -29 32 -42 38 -86 43 l-52 5 -2
-69z"/>
<path d="M7941 7050 c-109 -84 -288 -241 -300 -263 -13 -25 0 -373 15 -399 19
-32 246 -218 296 -242 30 -15 89 -31 133 -38 74 -10 83 -10 121 10 43 22 258
197 309 251 l30 33 -3 166 c-1 92 -7 190 -13 218 -12 62 -49 122 -94 153 -48
33 -370 161 -403 161 -17 -1 -51 -20 -91 -50z m112 -72 c8 -35 18 -82 22 -105
8 -50 21 -45 -180 -68 -77 -8 -155 -17 -174 -20 -18 -2 -30 -1 -26 3 26 26
322 251 331 252 6 0 18 -28 27 -62z m213 -12 c61 -26 120 -53 130 -61 17 -12
15 -14 -21 -23 -79 -19 -245 -45 -251 -39 -7 7 -43 154 -44 179 0 20 13 16
186 -56z m198 -157 c32 -58 31 -77 -9 -231 -22 -84 -31 -107 -38 -97 -38 51
-183 226 -217 262 -25 27 -46 52 -48 56 -1 4 33 13 75 20 43 7 103 19 133 26
30 7 60 13 66 14 6 1 23 -22 38 -50z m-388 -36 c-21 -23 -156 -232 -197 -302
-30 -52 -32 -54 -46 -35 -18 22 -128 249 -138 281 -8 28 -8 27 200 53 94 12
175 23 180 24 17 5 17 -1 1 -21z m66 -15 c8 -7 46 -51 84 -98 38 -47 95 -115
126 -153 32 -37 58 -73 58 -80 0 -39 -187 -93 -289 -83 -35 3 -69 10 -74 15
-5 5 4 33 22 69 51 100 38 159 -28 136 -32 -12 -34 -38 -3 -42 12 -2 22 -6 22
-9 0 -3 -16 -39 -35 -80 -19 -41 -35 -78 -35 -83 0 -9 44 -27 85 -35 48 -9
137 -6 175 5 58 17 57 13 -15 -60 -38 -38 -75 -70 -82 -70 -7 0 -45 25 -85 55
-40 30 -98 68 -128 85 -89 48 -86 44 -61 77 12 15 70 103 128 196 58 92 108
167 112 167 4 0 14 -6 23 -12z m-434 -160 c6 -18 32 -69 57 -112 25 -44 43
-81 41 -84 -4 -4 -95 26 -106 36 -7 5 -16 192 -10 192 4 0 11 -15 18 -32z
m792 -87 c0 -84 -1 -89 -20 -84 -29 8 -31 16 -15 59 7 22 17 56 20 77 10 61
15 43 15 -52z m-116 -192 c-41 -41 -90 -82 -107 -93 -32 -18 -32 -18 5 18 21
20 35 36 32 36 -14 0 80 86 110 101 17 8 32 15 34 14 1 -1 -32 -36 -74 -76z
m-554 29 c45 -24 123 -74 174 -112 117 -88 119 -90 76 -81 -47 9 -157 69 -200
109 -19 18 -61 52 -92 75 -32 24 -58 45 -58 47 0 10 25 1 100 -38z"/>
<path d="M7923 6924 c-22 -10 -15 -54 9 -63 39 -14 59 -2 56 33 -2 25 -8 31
-28 33 -14 1 -31 -1 -37 -3z"/>
<path d="M8137 6964 c-23 -24 17 -60 54 -49 33 11 21 49 -16 53 -17 2 -34 0
-38 -4z"/>
<path d="M8351 6756 c-21 -26 -9 -69 22 -80 52 -19 74 36 31 79 -19 19 -38 19
-53 1z"/>
<path d="M7845 6687 c-17 -13 -18 -18 -7 -42 10 -22 18 -26 45 -23 29 3 32 6
32 38 0 30 -4 35 -25 38 -14 2 -34 -4 -45 -11z"/>
<path d="M8154 6555 c-28 -43 -29 -105 -2 -145 13 -19 32 -36 42 -38 43 -9 96
49 96 103 0 83 -97 140 -136 80z m78 -32 c40 -36 5 -118 -41 -93 -23 12 -28
57 -11 91 13 23 28 24 52 2z"/>
<path d="M6764 7053 c24 -82 13 -206 -28 -323 -65 -188 -203 -343 -536 -601
-262 -203 -418 -343 -507 -455 l-40 -52 -32 20 c-48 31 -195 77 -296 93 -243
40 -483 3 -678 -103 -28 -15 -51 -22 -55 -16 -5 5 -32 39 -60 75 -71 91 -210
222 -392 368 -445 358 -514 430 -619 637 -44 88 -69 181 -78 285 -3 38 -9 69
-12 69 -4 0 -27 -13 -52 -28 -116 -75 -231 -253 -280 -437 -27 -99 -32 -311
-10 -390 39 -141 123 -247 325 -414 351 -289 520 -548 620 -947 14 -54 28
-119 32 -144 l7 -45 -51 43 c-63 53 -212 210 -302 317 -95 115 -246 310 -261
337 l-12 23 -10 -30 c-18 -54 -13 -417 7 -550 35 -235 32 -314 -20 -447 l-18
-47 45 -48 c120 -128 187 -279 205 -458 8 -78 10 -81 134 -173 86 -65 179
-182 270 -343 79 -139 149 -244 157 -235 3 2 0 116 -7 253 -7 157 -8 257 -2
273 9 23 11 21 26 -30 44 -144 130 -486 171 -678 51 -240 73 -301 153 -422
114 -171 285 -321 423 -370 88 -31 241 -38 329 -16 184 46 361 184 495 386 79
119 97 177 169 520 72 347 117 543 131 570 l13 25 8 -30 c10 -41 11 -192 1
-355 l-8 -135 21 25 c11 14 43 66 72 115 28 50 80 142 116 205 92 160 172 264
237 306 30 18 56 38 60 44 3 5 10 51 16 102 21 197 87 364 193 489 l59 70 -19
77 c-24 96 -24 270 0 392 24 129 36 297 29 425 -3 63 -9 115 -13 115 -3 0 -30
-33 -60 -72 -106 -142 -246 -314 -346 -423 -107 -117 -264 -268 -272 -260 -8
8 19 168 48 287 82 331 239 567 535 808 234 191 337 333 365 501 49 305 -116
695 -346 818 -47 26 -57 26 -50 4z m-3390 -250 c6 -39 4 -43 -23 -57 -48 -25
-54 1 -19 84 24 57 29 54 42 -27z m3505 -3 c1 -19 5 -50 10 -68 6 -18 13 -64
17 -102 6 -65 5 -70 -13 -70 -10 0 -28 6 -38 14 -19 14 -19 16 -2 100 12 57
16 107 13 144 -4 39 -3 51 3 37 5 -11 10 -36 10 -55z m-3485 -122 c10 -38 7
-47 -20 -65 -25 -16 -27 -16 -40 2 -19 26 -17 62 4 74 28 17 49 12 56 -11z
m48 -154 c20 -46 20 -47 1 -72 -45 -60 -86 -54 -91 15 -2 33 2 46 27 71 16 18
32 32 36 32 3 0 15 -21 27 -46z m3413 -36 c44 -29 44 -54 1 -104 l-33 -38 -33
32 c-26 27 -31 38 -25 60 8 34 32 72 45 72 6 0 26 -10 45 -22z m198 -64 c4
-66 2 -81 -10 -81 -10 0 -13 7 -9 21 3 12 6 50 6 85 0 88 8 73 13 -25z m-3857
0 c-2 -6 -1 -15 4 -20 4 -5 11 -25 14 -44 5 -27 4 -30 -4 -15 -7 15 -8 7 -5
-30 4 -40 3 -45 -4 -22 -15 44 -24 199 -11 168 6 -14 9 -30 6 -37z m374 -81
c0 -62 -42 -120 -79 -108 -22 7 -61 63 -61 88 0 23 48 75 73 79 37 6 67 -20
67 -59z m3182 -30 c27 -29 58 -84 58 -103 0 -6 -12 -10 -27 -9 -69 5 -75 2
-71 -36 4 -39 -6 -44 -37 -17 -63 53 -71 109 -23 159 39 40 66 42 100 6z m267
-40 c-13 -41 -39 -85 -39 -66 0 7 4 14 9 17 5 4 15 29 22 57 7 28 15 46 17 40
2 -6 -2 -28 -9 -48z m-3774 4 c8 -20 13 -37 10 -37 -5 0 -35 67 -35 78 0 11
10 -5 25 -41z m3800 -14 c-9 -50 -17 -34 -9 18 4 24 9 38 12 31 2 -7 1 -29 -3
-49z m-3332 -30 c24 -23 21 -62 -11 -108 -36 -52 -59 -54 -101 -11 -40 41 -37
71 10 118 24 24 35 29 57 23 15 -3 35 -14 45 -22z m-459 -60 c14 -29 24 -53
21 -53 -5 0 -55 95 -55 106 0 12 6 2 34 -53z m3767 13 c-14 -36 -22 -33 -9 5
6 16 12 28 14 26 3 -2 0 -16 -5 -31z m-3721 -16 c6 -11 8 -20 6 -20 -3 0 -10
9 -16 20 -6 11 -8 20 -6 20 3 0 10 -9 16 -20z m3659 -20 c-13 -22 -35 -55 -51
-73 -15 -17 -6 1 20 41 52 79 66 94 31 32z m-385 -4 c29 -30 82 -146 67 -146
-3 0 -29 9 -57 20 -29 10 -54 16 -58 13 -3 -4 -6 -21 -6 -39 0 -46 -12 -48
-54 -11 -28 24 -39 42 -43 73 -5 38 -3 43 42 82 26 23 55 42 63 42 8 0 29 -15
46 -34z m406 -35 c-5 -11 -15 -23 -21 -27 -6 -3 -3 5 6 20 20 30 30 35 15 7z
m-3112 -24 c12 -11 22 -27 22 -34 0 -18 -34 -82 -60 -112 l-21 -25 -25 32
c-14 18 -31 32 -39 32 -24 0 -25 32 -3 73 37 67 77 77 126 34z m-567 6 c13
-16 12 -17 -3 -4 -10 7 -18 15 -18 17 0 8 8 3 21 -13z m50 0 c13 -16 12 -17
-3 -4 -10 7 -18 15 -18 17 0 8 8 3 21 -13z m129 -182 c14 -13 -2 -2 -35 26
-33 28 -78 71 -100 94 -36 39 73 -57 135 -120z m3445 127 c-48 -58 -197 -187
-209 -182 -7 3 -19 -2 -26 -11 -7 -8 -10 -15 -7 -15 4 0 -58 -64 -136 -142
-176 -176 -276 -316 -332 -463 -11 -26 -21 -43 -23 -37 -7 21 105 235 168 320
73 99 440 471 440 446 0 -4 -10 -18 -22 -31 -12 -13 -17 -23 -12 -23 5 0 47
38 94 85 89 90 109 106 65 53z m-3510 -18 c21 -22 37 -40 34 -40 -3 0 -23 18
-44 40 -21 22 -37 40 -34 40 3 0 23 -18 44 -40z m3465 17 c0 -2 -17 -19 -37
-38 l-38 -34 34 38 c33 34 41 42 41 34z m-531 -26 c35 -19 112 -221 84 -221
-5 0 -24 11 -43 25 -19 14 -40 25 -47 25 -7 0 -19 -11 -25 -25 -15 -34 -28
-32 -70 13 -61 63 -60 77 8 138 64 57 66 59 93 45z m-2834 -91 c27 -27 47 -50
44 -50 -3 0 -27 23 -54 50 -27 28 -47 50 -44 50 3 0 27 -22 54 -50z m520 19
c50 -44 48 -80 -7 -131 -23 -21 -45 -38 -49 -38 -4 0 -17 16 -28 36 -16 27
-27 35 -41 31 -29 -7 -44 16 -29 45 20 41 72 88 96 88 12 0 38 -14 58 -31z
m-490 -79 c10 -11 16 -20 13 -20 -3 0 -13 9 -23 20 -10 11 -16 20 -13 20 3 0
13 -9 23 -20z m61 -22 l29 -33 -32 29 c-31 28 -38 36 -30 36 2 0 16 -15 33
-32z m-6 -23 c13 -14 21 -25 18 -25 -2 0 -15 11 -28 25 -13 14 -21 25 -18 25
2 0 15 -11 28 -25z m2566 -12 c27 -30 98 -168 92 -182 -1 -5 -32 8 -68 30 -36
21 -71 39 -77 39 -8 0 -13 -14 -13 -39 0 -22 -6 -44 -15 -51 -12 -10 -21 -6
-50 23 -54 54 -49 87 23 154 31 29 63 53 70 53 7 0 24 -12 38 -27z m-2439 -86
c-1 -5 7 -11 17 -13 10 -1 26 -10 35 -19 15 -15 14 -15 -4 -9 -18 7 -18 6 -6
-9 7 -9 17 -15 21 -12 3 2 22 -13 41 -33 57 -61 70 -79 73 -99 2 -10 8 -18 14
-18 7 0 23 -17 37 -37 14 -21 23 -38 20 -38 -3 0 -7 0 -10 0 -3 0 -6 3 -6 8
-1 4 -10 13 -20 20 -11 8 -16 19 -12 29 4 10 2 14 -4 10 -5 -3 -32 19 -58 51
-27 31 -39 48 -27 38 12 -11 22 -15 22 -9 0 11 -30 40 -45 44 -5 1 -48 38 -95
83 -47 45 -74 71 -60 59 39 -34 48 -28 14 10 -22 24 -18 22 13 -7 23 -21 41
-43 40 -49z m494 34 c68 -67 67 -103 -5 -159 -40 -31 -48 -28 -40 15 l7 36
-62 -6 c-34 -4 -73 -10 -86 -13 -21 -5 -25 -3 -25 18 0 31 114 158 142 158 12
0 43 -22 69 -49z m1755 -170 c54 -39 98 -88 123 -136 18 -34 19 -40 6 -43 -9
-2 -30 5 -48 16 -18 10 -45 22 -60 26 -23 5 -27 3 -27 -14 0 -24 -9 -25 -35
-2 -33 27 -65 78 -65 102 0 26 36 80 54 80 7 0 31 -13 52 -29z m-1599 -20 c13
-19 23 -42 23 -52 0 -27 -71 -104 -81 -87 -6 9 -20 8 -66 -6 -32 -10 -65 -21
-73 -23 -12 -4 -12 -3 -2 5 11 7 11 10 -2 15 -30 12 -16 38 60 113 86 85 105
89 141 35z m1475 -138 c15 -16 42 -55 62 -88 20 -33 44 -71 53 -84 17 -24 17
-24 -4 -13 -41 22 -56 16 -50 -20 3 -18 8 -42 12 -53 12 -35 -104 94 -130 145
-28 55 -31 90 -13 120 17 27 40 25 70 -7z m-1857 -24 c-4 -5 -2 -9 4 -9 26 0
151 -306 165 -405 7 -49 5 -43 -29 70 -27 95 -118 297 -147 329 -17 19 -15 42
3 30 5 -3 7 -10 4 -15z m505 2 c30 -58 -12 -176 -96 -271 -46 -50 -74 -67 -55
-32 5 9 10 37 12 62 4 43 3 45 -21 41 -14 -1 -38 -10 -54 -18 l-29 -15 7 28
c10 40 87 145 138 188 46 40 82 46 98 17z m1687 -253 c-3 -8 -6 -5 -6 6 -1 11
2 17 5 13 3 -3 4 -12 1 -19z m536 -445 c-4 -126 -2 -170 11 -219 9 -34 16 -64
16 -67 0 -2 -24 -8 -52 -11 -29 -4 -100 -18 -156 -32 -57 -13 -110 -24 -118
-24 -24 0 12 58 51 81 66 39 175 213 226 362 12 37 24 67 25 67 1 0 0 -71 -3
-157z m-3068 1 c52 -134 88 -188 213 -320 45 -47 82 -90 82 -96 0 -12 -4 -11
-163 31 -65 17 -139 31 -164 31 -38 0 -44 3 -39 17 18 47 28 182 23 317 -4 82
-5 147 -3 145 2 -2 25 -58 51 -125z m3015 -406 c-70 -86 -127 -207 -147 -312
-18 -94 -22 -96 -72 -33 -16 21 -46 51 -67 68 -23 18 -31 29 -21 29 25 0 70
78 71 122 0 21 4 38 8 38 5 0 8 11 8 23 0 20 15 31 93 70 108 53 113 55 150
56 l28 1 -51 -62z m-2940 -42 c34 -10 46 -19 50 -37 7 -33 52 -101 81 -122 16
-12 20 -20 12 -23 -27 -12 -11 -32 35 -44 l47 -12 -30 -21 c-16 -11 -56 -47
-89 -79 -32 -33 -59 -58 -60 -56 -2 2 -8 36 -15 76 -14 87 -53 179 -115 268
l-45 64 42 0 c23 0 62 -6 87 -14z m2137 -166 c-11 -86 -136 -205 -240 -231
-84 -21 -255 3 -244 35 4 13 5 13 197 100 91 41 190 88 220 105 30 17 59 31
64 31 5 0 6 -18 3 -40z m-1167 -62 c96 -44 196 -89 223 -100 84 -37 48 -69
-84 -76 -81 -4 -89 -2 -161 31 -41 19 -94 51 -117 73 -42 37 -91 118 -91 150
0 24 30 14 230 -78z m1669 -120 c45 -26 77 -55 102 -89 l18 -26 -55 -38 c-30
-21 -75 -60 -99 -88 l-45 -49 0 57 c0 31 5 65 10 76 6 10 13 55 17 99 3 44 8
80 11 80 2 0 21 -10 41 -22z m-2345 -39 c7 -44 -1 -70 -14 -48 -13 19 -23 -52
-18 -121 l4 -59 -35 31 c-35 31 -125 78 -149 78 -37 0 70 115 142 152 43 22
63 13 70 -33z m1540 -629 c0 -90 -5 -120 -33 -210 -18 -58 -38 -114 -44 -125
-10 -19 -11 -18 -19 10 -14 51 -39 366 -30 381 15 28 66 54 97 52 l30 -3 -1
-105z m-699 65 c20 -20 25 -34 25 -78 0 -65 -18 -246 -29 -297 l-8 -35 -12 30
c-44 107 -92 351 -78 390 10 25 74 19 102 -10z m499 -61 c28 -27 12 -127 -25
-160 -17 -16 -20 -15 -38 7 -14 17 -20 39 -21 74 0 55 5 66 35 83 27 15 31 15
49 -4z m-329 -16 c25 -19 27 -26 23 -75 -3 -37 -11 -61 -25 -75 l-21 -20 -16
24 c-19 29 -41 131 -33 152 9 22 40 20 72 -6z m170 -11 c15 -11 17 -22 11 -56
-7 -47 -25 -81 -42 -81 -36 0 -73 122 -43 141 20 13 53 11 74 -4z m-242 -486
c27 -116 28 -159 4 -188 -14 -19 -34 -16 -56 8 -31 33 -34 84 -11 193 11 54
20 100 20 102 0 2 3 4 8 4 4 0 20 -54 35 -119z m513 -15 c19 -93 9 -150 -28
-162 -47 -15 -62 67 -33 180 27 102 37 99 61 -18z m-378 -112 c21 -86 -9 -145
-50 -95 -23 29 -24 98 -2 129 23 33 37 23 52 -34z m239 37 c33 -52 22 -141
-16 -141 -31 0 -44 35 -37 93 4 28 9 54 12 59 9 14 29 9 41 -11z m-107 -10
c14 -28 12 -114 -4 -136 -30 -41 -72 17 -63 88 8 62 45 88 67 48z"/>
<path d="M6734 5878 l-19 -23 23 19 c21 18 27 26 19 26 -2 0 -12 -10 -23 -22z"/>
<path d="M6654 5808 l-19 -23 23 19 c21 18 27 26 19 26 -2 0 -12 -10 -23 -22z"/>
<path d="M3790 5646 c0 -2 8 -10 18 -17 15 -13 16 -12 3 4 -13 16 -21 21 -21
13z"/>
<path d="M3860 5566 c0 -2 8 -10 18 -17 15 -13 16 -12 3 4 -13 16 -21 21 -21
13z"/>
<path d="M2294 7040 c-45 -16 -217 -103 -369 -186 -33 -18 -69 -42 -79 -53
-19 -21 -19 -23 8 -109 14 -48 26 -92 26 -98 0 -25 102 -381 115 -401 8 -12
23 -24 33 -27 19 -6 499 140 643 195 43 17 83 38 88 47 6 13 -28 77 -136 257
-79 132 -157 263 -173 292 -54 94 -82 110 -156 83z m12 -77 c-23 -64 -256
-666 -270 -697 -12 -29 -13 -27 -39 75 -26 99 -102 376 -113 410 -6 18 26 45
91 75 22 10 76 38 120 63 103 56 208 110 217 111 4 0 1 -17 -6 -37z m133 -89
c35 -60 106 -180 157 -266 52 -87 94 -164 94 -172 0 -8 -15 -19 -32 -26 -104
-38 -583 -186 -585 -181 -3 6 106 299 202 541 31 80 62 162 68 183 6 20 16 36
22 34 5 -2 39 -53 74 -113z"/>
<path d="M2153 6883 c-20 -8 -16 -71 5 -82 34 -18 81 35 66 74 -6 14 -45 19
-71 8z"/>
<path d="M1952 6748 c-7 -7 -12 -21 -12 -33 0 -46 57 -62 84 -24 31 45 -33 96
-72 57z"/>
<path d="M2002 6528 c-7 -7 -12 -22 -12 -34 0 -49 72 -61 78 -13 5 44 -39 74
-66 47z"/>
<path d="M2362 6794 c-49 -34 -2 -105 56 -83 17 7 22 16 22 44 0 29 -5 37 -26
45 -31 12 -25 13 -52 -6z"/>
<path d="M2502 6518 c-29 -29 0 -88 45 -88 11 0 28 9 38 20 15 16 17 26 9 48
-7 21 -17 28 -44 30 -19 2 -41 -3 -48 -10z"/>
<path d="M2198 6443 c-8 -10 -18 -35 -21 -55 -5 -31 -2 -40 14 -49 17 -8 27
-5 55 16 30 23 35 32 32 63 -3 33 -6 37 -34 40 -19 2 -36 -3 -46 -15z"/>
<path d="M2013 6040 c-54 -62 -66 -119 -39 -185 18 -43 45 -46 80 -9 33 37 40
93 20 165 -9 33 -20 61 -23 63 -3 1 -20 -14 -38 -34z"/>
<path d="M1792 5916 c-78 -83 -102 -137 -102 -230 0 -74 9 -83 61 -67 54 16
59 11 100 -124 38 -123 105 -255 129 -255 3 0 19 27 35 60 38 80 55 79 55 -2
0 -74 21 -210 44 -288 28 -93 55 -132 113 -160 68 -34 92 -57 154 -152 55 -84
69 -87 69 -15 0 23 4 36 10 32 11 -7 112 -216 130 -269 6 -19 14 -63 18 -98
l8 -63 23 44 c41 79 49 148 41 361 -6 142 -13 209 -25 245 -29 83 -85 168
-101 152 -3 -2 -10 -36 -15 -73 -13 -92 -17 -104 -38 -104 -15 0 -20 12 -25
73 -4 39 -19 122 -33 182 -14 61 -28 161 -32 225 l-6 115 -53 -54 c-84 -87
-99 -167 -60 -317 12 -46 19 -87 15 -91 -16 -15 -65 51 -86 114 -21 63 -26
105 -51 382 -8 100 -13 119 -40 161 -30 46 -51 60 -96 60 -29 0 -35 -26 -28
-138 5 -85 4 -92 -13 -92 -20 0 -66 68 -104 155 -24 53 -31 179 -16 263 4 23
3 42 -2 42 -4 0 -40 -34 -79 -74z"/>
<path d="M8276 5716 c-48 -18 -88 -56 -112 -106 -18 -37 -21 -39 -54 -34 -84
14 -183 -47 -215 -130 -14 -36 -15 -50 -5 -86 11 -39 10 -45 -7 -57 -75 -54
-142 -112 -156 -136 -9 -15 -22 -29 -29 -31 -7 -2 -42 -11 -78 -20 -100 -26
-99 -25 -66 -93 54 -109 59 -85 -87 -366 -73 -138 -233 -452 -356 -697 -124
-245 -254 -503 -291 -574 -68 -129 -68 -129 -106 -133 -101 -8 -204 -26 -204
-35 0 -5 22 -44 49 -86 68 -106 69 -112 26 -206 -76 -162 -120 -441 -81 -501
20 -31 35 -31 89 -4 99 51 183 130 282 263 58 78 72 101 85 139 8 23 15 27 49
27 40 0 184 18 209 26 9 2 0 24 -28 66 -23 35 -50 81 -62 104 l-20 41 40 94
c22 52 59 135 82 184 23 50 73 158 110 240 89 197 427 920 475 1016 20 42 51
92 68 112 30 35 37 37 104 43 105 10 105 10 53 107 -48 91 -48 85 -4 157 11
18 13 39 8 75 -3 28 -6 70 -5 95 2 41 7 50 56 95 48 45 54 56 65 112 14 69 27
80 70 58 37 -19 107 -19 144 0 53 28 65 21 145 -83 18 -24 36 -55 41 -71 7
-24 4 -29 -22 -40 -76 -34 -109 -154 -67 -251 14 -33 19 -55 13 -57 -6 -2 -35
-18 -65 -36 -43 -25 -59 -43 -81 -87 -30 -60 -34 -97 -16 -146 14 -40 -4 -62
-83 -97 -98 -43 -154 -124 -147 -214 3 -44 3 -45 -57 -87 -45 -32 -67 -55 -89
-99 -30 -59 -39 -132 -22 -172 5 -11 6 -17 1 -13 -4 4 -22 0 -39 -9 -140 -70
-180 -257 -74 -348 l40 -34 -16 -48 c-20 -60 -14 -96 30 -185 19 -37 34 -72
34 -77 0 -6 -40 -8 -106 -4 l-107 6 6 -29 c3 -16 17 -60 31 -97 15 -38 24 -72
21 -77 -3 -4 -50 -34 -105 -66 -55 -33 -99 -62 -97 -66 2 -7 87 -55 195 -111
l63 -32 -7 -40 c-3 -22 -15 -76 -25 -120 -23 -97 -23 -115 -4 -115 8 0 56 18
107 40 51 22 97 40 101 40 5 0 23 -10 39 -22 22 -15 48 -57 90 -146 36 -76 63
-122 71 -120 6 3 39 56 72 118 58 111 61 115 104 127 41 12 49 10 163 -32 129
-48 164 -55 154 -29 -9 24 -59 275 -55 278 2 2 59 38 127 80 67 43 122 80 122
84 0 4 -52 29 -115 57 -63 27 -115 52 -115 54 0 2 25 53 55 112 30 59 55 110
55 113 0 3 -69 7 -152 8 l-153 3 -35 139 c-19 77 -40 141 -46 143 -6 2 -23
-13 -37 -34 -14 -21 -47 -62 -74 -92 -46 -51 -51 -54 -85 -47 -31 6 -39 14
-63 61 -14 30 -46 72 -71 93 -24 22 -44 44 -44 50 0 6 10 31 22 54 19 36 23
59 23 145 l0 102 70 43 c58 36 74 52 98 99 30 58 37 109 24 169 -8 34 -8 35
34 48 62 19 110 62 142 126 25 50 28 61 19 101 -11 50 -5 59 58 90 93 46 144
140 134 243 -6 57 -6 58 36 102 101 108 116 222 38 300 -28 28 -29 32 -18 66
7 20 18 48 26 62 32 63 4 169 -57 213 -24 17 -46 23 -85 23 -45 0 -53 3 -67
27 -33 59 -123 84 -201 55z m104 -97 c9 -16 8 -25 -6 -40 -19 -21 -54 -26 -54
-8 0 7 -14 10 -35 7 -38 -4 -42 0 -22 24 33 41 99 51 117 17z m222 -76 c39
-35 12 -102 -31 -76 -22 13 -44 61 -37 79 7 19 45 18 68 -3z m-536 -83 c2 -38
-14 -90 -26 -90 -5 0 -17 12 -27 26 -18 25 -20 25 -36 9 -15 -14 -17 -15 -17
-1 0 23 70 97 89 94 11 -2 16 -15 17 -38z m-88 -209 c5 -31 -7 -41 -40 -34
-32 6 -35 19 -11 45 22 24 47 19 51 -11z m646 -47 c10 -25 7 -102 -4 -109 -5
-3 -15 6 -22 20 -11 26 -12 26 -20 6 -4 -12 -14 -21 -23 -21 -24 0 -20 75 5
100 24 24 56 26 64 4z m-699 -69 c30 -30 31 -41 4 -48 -24 -6 -85 21 -94 41
-15 39 53 45 90 7z m672 -67 c-3 -8 -6 -5 -6 6 -1 11 2 17 5 13 3 -3 4 -12 1
-19z m-897 -20 c0 -7 -9 -24 -19 -37 l-19 -24 -15 30 c-9 17 -13 33 -10 37 12
11 63 6 63 -6z m146 -6 c12 -9 25 -28 29 -41 7 -23 6 -24 -33 -18 -56 9 -66
-6 -60 -93 3 -39 4 -70 2 -70 -15 0 -74 48 -74 60 0 8 11 35 25 59 14 23 25
47 25 52 0 15 43 69 54 69 6 0 21 -8 32 -18z m139 -163 c9 -17 14 -33 12 -35
-9 -10 -77 -16 -77 -8 0 11 38 74 45 74 2 0 12 -14 20 -31z m525 -34 c12 -14
8 -41 -12 -82 -15 -31 -28 -29 -28 4 l0 27 -16 -22 c-8 -13 -26 -22 -40 -22
-21 0 -24 3 -18 28 7 33 57 82 83 82 10 0 24 -7 31 -15z m-815 -114 c3 -5 -5
-25 -17 -44 -13 -19 -28 -42 -33 -52 -9 -15 -15 -16 -32 -6 l-22 11 21 48 c29
65 36 74 58 62 11 -6 21 -14 25 -19z m-86 -167 c2 -2 -2 -12 -10 -21 -20 -24
-39 -69 -39 -93 0 -11 -2 -20 -5 -20 -3 0 -55 21 -63 26 -2 1 12 30 29 63 30
57 35 62 58 56 14 -4 28 -8 30 -11z m699 -57 c4 -29 -24 -81 -59 -113 -22 -19
-22 -19 -15 6 4 14 10 33 12 43 7 23 -9 22 -31 -3 -19 -21 -45 -27 -45 -11 0
28 101 115 125 108 6 -2 11 -16 13 -30z m-809 -130 c8 -11 3 -27 -20 -70 -17
-32 -32 -57 -34 -57 -2 0 -15 5 -28 11 l-25 11 32 59 c31 59 53 72 75 46z
m624 -158 c14 -23 1 -64 -33 -102 -28 -30 -29 -31 -30 -9 0 26 -8 27 -38 6
-33 -23 -36 -13 -11 40 35 74 87 105 112 65z m-708 -29 c3 -5 -6 -33 -21 -62
-39 -77 -42 -80 -66 -56 l-21 21 26 53 c22 43 32 54 51 54 14 0 27 -4 31 -10z
m-106 -189 c11 -7 9 -19 -12 -65 -28 -60 -31 -62 -63 -43 l-21 12 24 53 c24
52 41 62 72 43z m615 -133 c3 -13 6 -42 6 -66 0 -50 -20 -64 -50 -37 -19 17
-20 17 -20 -3 0 -12 -5 -22 -11 -22 -19 0 -5 106 16 130 24 27 51 25 59 -2z
m-708 -32 c18 -14 18 -17 -25 -100 -24 -47 -45 -86 -47 -86 -2 0 -12 8 -22 18
-18 16 -17 20 22 100 22 45 43 82 46 82 4 0 15 -6 26 -14z m-100 -230 c8 -22
-35 -99 -49 -88 -7 5 -17 11 -24 13 -21 7 22 89 47 89 11 0 23 -6 26 -14z
m875 -99 c1 -17 6 -39 13 -57 3 -8 2 -21 -3 -29 -13 -21 -70 5 -82 36 -13 35
-11 81 4 86 16 6 67 -20 68 -36z m-947 -40 c17 -27 -25 -91 -63 -95 -38 -4
-41 15 -9 67 33 55 51 62 72 28z m1303 -48 c9 -45 8 -54 -8 -70 -28 -28 -58
-24 -70 8 -5 14 -7 33 -4 41 9 24 49 71 61 71 6 1 16 -22 21 -50z m-207 -49
c13 -9 11 -13 -9 -31 -30 -24 -55 -21 -59 8 -2 14 3 23 15 26 30 8 37 7 53 -3z
m-1158 -66 c4 -3 -10 -36 -30 -74 -26 -48 -46 -72 -67 -82 -34 -15 -43 -39
-44 -119 -1 -32 -6 -61 -13 -67 -18 -14 -78 12 -78 33 0 23 61 151 103 218 44
68 108 113 129 91z m1230 -24 c7 -44 -5 -57 -36 -42 -29 13 -32 23 -14 52 19
30 45 25 50 -10z m-112 -17 c0 -16 3 -38 6 -49 12 -44 95 -58 159 -27 36 17
36 19 30 60 -5 36 -4 43 11 43 23 0 96 -22 112 -33 22 -17 21 -19 -102 -130
-16 -15 -44 -29 -63 -33 -40 -7 -127 2 -157 18 -30 15 -96 80 -96 94 0 14 75
84 90 84 6 0 10 -12 10 -27z m534 -11 c-47 -80 -65 -86 -97 -33 -13 23 -14 31
-4 39 15 13 43 19 85 21 l33 1 -17 -28z m-766 -14 c39 -12 41 -30 6 -57 -38
-30 -50 -26 -78 21 -34 58 -22 64 72 36z m-1138 -65 c0 -5 -11 -21 -24 -37
l-23 -30 -31 23 c-38 26 -40 38 -9 44 39 8 87 7 87 0z m1715 -65 c30 -13 33
-46 7 -78 -17 -21 -18 -21 -50 -3 -38 22 -42 55 -10 77 27 19 21 19 53 4z
m-1389 -70 c43 -68 42 -80 -6 -53 -14 8 -35 14 -47 15 -21 0 -23 5 -23 56 0
74 19 70 76 -18z m989 46 c21 -14 23 -19 12 -42 -27 -64 -31 -66 -66 -30 -37
38 -40 65 -8 78 31 12 35 12 62 -6z m-236 -58 c17 -69 15 -76 -22 -76 -37 0
-123 40 -119 55 3 12 114 73 123 69 4 -2 12 -24 18 -48z m459 3 c1 -49 -14
-79 -41 -79 -40 0 -58 21 -51 58 6 27 11 32 35 32 16 0 29 5 29 10 0 6 6 10
13 10 9 0 14 -12 15 -31z m389 -7 c26 -11 57 -22 68 -26 17 -6 12 -11 -30 -31
-67 -32 -98 -35 -103 -12 -4 20 6 87 13 87 2 0 26 -8 52 -18z m-1905 -130 c16
-13 16 -16 0 -48 -10 -22 -21 -33 -30 -29 -7 3 -27 5 -43 5 -36 0 -36 7 1 59
31 42 37 43 72 13z m1373 -9 c19 -9 35 -20 35 -25 0 -10 -99 -88 -112 -88 -7
0 -8 17 -4 48 13 91 18 95 81 65z m259 -20 c3 -21 6 -55 6 -76 l0 -38 -42 29
c-24 16 -51 39 -61 50 -18 20 -18 21 20 46 53 36 69 34 77 -11z m-479 -100
l29 -35 -27 -24 c-40 -34 -74 -33 -69 1 7 43 23 95 30 94 4 0 20 -16 37 -36z
m-1227 -19 c19 -13 20 -18 10 -37 -16 -31 -91 -127 -100 -127 -3 0 -3 15 2 33
4 17 13 58 20 90 12 62 26 70 68 41z m1885 -26 c9 -24 19 -56 23 -71 l7 -29
-54 27 c-30 15 -55 28 -56 29 -5 4 51 86 58 86 3 0 13 -19 22 -42z m-380 -99
c21 -6 37 -16 37 -25 0 -24 -40 -95 -50 -89 -7 5 -50 107 -50 120 0 8 22 6 63
-6z"/>
<path d="M1520 5495 c-24 -28 -12 -74 54 -213 81 -169 117 -269 156 -423 61
-239 85 -284 255 -459 67 -69 133 -145 148 -170 14 -25 45 -101 68 -170 23
-69 57 -155 75 -191 39 -79 135 -202 191 -247 22 -17 58 -55 80 -84 48 -63
173 -285 173 -307 0 -50 -66 -109 -197 -175 -89 -44 -101 -64 -105 -179 -2
-72 0 -88 16 -106 36 -40 155 -54 219 -27 19 8 56 42 87 81 62 78 129 125 177
125 47 0 99 -55 164 -175 54 -99 148 -208 239 -276 34 -25 37 -34 39 -108 1
-34 86 -116 136 -130 166 -49 277 -4 292 118 8 71 -17 146 -71 207 -25 28 -61
80 -82 115 -46 79 -91 142 -169 237 -168 204 -183 232 -171 315 10 65 35 91
119 123 85 32 131 74 147 134 23 86 -41 180 -122 180 -60 0 -102 -25 -205
-122 -51 -48 -105 -91 -119 -94 -50 -13 -116 63 -168 192 -69 169 -95 212
-194 318 -133 141 -169 190 -256 349 -104 189 -130 227 -247 353 -56 60 -108
119 -116 131 -8 12 -45 91 -83 177 -114 262 -231 407 -386 482 -77 37 -124 43
-144 19z m186 -143 c93 -68 177 -184 244 -339 107 -248 112 -255 222 -370 125
-129 183 -212 268 -383 58 -115 117 -198 221 -307 114 -122 138 -158 184 -282
40 -108 54 -136 100 -196 37 -48 37 -69 -1 -55 -31 12 -62 56 -139 200 -37 69
-85 152 -107 185 -39 62 -137 169 -146 160 -3 -2 0 -10 6 -17 18 -23 72 -126
72 -139 0 -20 -96 90 -128 146 -30 51 -64 134 -127 310 -70 193 -126 270 -275
379 -99 73 -121 104 -168 231 -82 220 -162 367 -250 458 -52 53 -39 64 24 19z
m160 -489 c54 -175 69 -200 169 -278 156 -122 210 -204 302 -460 58 -161 106
-252 175 -331 24 -27 52 -62 62 -77 9 -16 34 -47 54 -70 39 -45 24 -34 -68 46
-79 70 -157 163 -190 228 -16 30 -52 123 -80 205 -63 183 -106 251 -230 365
-144 132 -177 187 -225 374 -20 77 -23 115 -9 115 1 0 19 -53 40 -117z m1543
-1312 c22 -14 -11 -58 -50 -66 -19 -4 -60 -34 -105 -77 -72 -68 -74 -70 -74
-42 0 22 18 46 84 111 84 83 110 96 145 74z m-652 -123 c-3 -8 -6 -5 -6 6 -1
11 2 17 5 13 3 -3 4 -12 1 -19z m26 -65 c-3 -7 -6 -13 -8 -13 -2 0 -5 6 -8 13
-3 8 1 14 8 14 7 0 11 -6 8 -14z m341 -12 c15 -16 15 -25 5 -64 -7 -30 -18
-48 -30 -52 -38 -12 -112 55 -94 85 7 11 81 49 96 50 3 0 14 -8 23 -19z m-194
-128 c28 -28 39 -32 93 -35 l62 -3 -44 -22 c-65 -33 -93 -30 -141 15 -42 41
-51 75 -28 112 12 19 13 19 20 -8 4 -15 21 -42 38 -59z m260 -65 c26 -28 26
-55 -1 -63 -21 -7 -59 18 -59 38 0 10 29 47 36 47 2 0 12 -10 24 -22z m-375
-39 c11 -17 2 -18 -19 -3 -17 12 -17 14 -4 14 9 0 20 -5 23 -11z m-77 -54 c-6
-31 -1 -31 29 -3 13 12 23 16 23 10 0 -23 -143 -113 -157 -99 -6 7 93 115 106
117 2 0 1 -11 -1 -25z m479 -40 c0 -8 -4 -12 -9 -9 -5 3 -6 10 -3 15 9 13 12
11 12 -6z m72 -40 c13 -22 15 -31 6 -20 -18 22 -53 86 -38 70 6 -5 20 -28 32
-50z m-683 -93 c-9 -28 -35 -35 -62 -17 -30 19 -31 49 -2 69 21 15 24 14 46
-8 17 -16 22 -30 18 -44z m760 -40 c-14 -15 -19 -13 -51 18 -19 18 -32 36 -30
39 3 2 18 -10 34 -29 31 -38 47 -28 25 16 l-14 29 26 -29 c23 -26 24 -30 10
-44z m39 -51 c-3 -6 -11 -11 -17 -11 -6 0 -6 6 2 15 14 17 26 13 15 -4z m-185
-71 c22 -38 45 -72 50 -75 6 -3 10 -12 10 -18 0 -15 -65 74 -91 126 -32 62
-12 41 31 -33z m230 41 c6 -11 6 -22 1 -25 -5 -3 -11 5 -13 19 -6 30 -2 32 12
6z m32 -63 c-5 -7 -12 -24 -15 -38 l-4 -25 -2 26 c0 14 4 30 11 37 16 16 23
15 10 0z m24 -66 c-18 -16 -18 -16 -6 6 6 13 14 21 18 18 3 -4 -2 -14 -12 -24z
m127 -114 c26 -35 17 -78 -17 -78 -32 0 -76 37 -76 64 0 51 58 61 93 14z
m-141 -157 c15 -9 30 -12 35 -7 4 4 0 12 -9 17 -10 6 -23 20 -29 32 -7 13 3 7
24 -15 20 -21 45 -38 57 -38 12 0 18 -5 15 -10 -10 -16 -87 0 -112 23 -17 15
-23 30 -21 61 l1 41 6 -45 c5 -34 12 -48 33 -59z"/>
<path d="M3150 3145 c-10 -12 -10 -18 0 -30 14 -17 20 -18 39 -6 10 7 11 13 2
30 -14 25 -24 26 -41 6z"/>
<path d="M2577 5428 c-3 -18 -10 -62 -17 -98 -12 -64 -5 -122 18 -158 14 -21
61 -3 77 29 27 51 19 118 -20 183 -19 32 -35 62 -35 67 0 24 -18 5 -23 -23z"/>
<path d="M2830 5180 c0 -17 -14 -61 -31 -98 -34 -75 -46 -153 -30 -194 15 -38
80 -58 115 -34 37 23 59 104 45 165 -11 53 -77 191 -90 191 -5 0 -9 -14 -9
-30z"/>
<path d="M2822 4741 c-56 -71 -66 -113 -56 -231 10 -111 10 -215 -1 -320 l-7
-75 42 -63 c23 -35 44 -61 46 -59 2 2 -1 19 -6 38 -6 18 -10 45 -10 59 1 25 1
25 30 -9 40 -47 94 -151 138 -269 20 -54 45 -109 54 -123 l17 -24 0 45 c1 52
31 200 41 200 9 0 20 -175 14 -222 -5 -47 5 -48 44 -4 53 60 55 185 6 348 -30
102 -64 188 -74 188 -4 0 -13 -20 -20 -45 -34 -121 -107 -57 -109 96 -1 31
-12 99 -26 150 -14 52 -35 144 -46 204 -12 61 -24 123 -28 139 l-6 30 -43 -53z"/>
</g>
</svg>
