<?xml version="1.0" encoding="UTF-8"?>
<svg version="1.1" xmlns="http://www.w3.org/2000/svg" width="512" height="512">
<path d="M0 0 C9.19628768 7.5090349 12.21750611 17.73777161 15.1484375 28.90234375 C15.48639343 30.15428024 15.82434937 31.40621674 16.17254639 32.6960907 C17.11193918 36.17752737 18.03773175 39.66245624 18.96130753 43.14811707 C19.97179475 46.95209041 20.99497476 50.75265166 22.01635742 54.55371094 C24.08970817 62.27854451 26.15047092 70.00668836 28.20717907 77.73596764 C30.05462303 84.67824584 31.90613477 91.61942987 33.75976562 98.56005859 C34.03887409 99.60518616 34.31798256 100.65031372 34.60554886 101.72711182 C35.17788932 103.87024762 35.75023253 106.01338268 36.32257843 108.15651703 C40.19850258 122.67131332 44.07073065 137.18709184 47.93652344 151.70458984 C48.38557981 153.39095928 48.38557981 153.39095928 48.84370804 155.11139679 C49.14236141 156.23295921 49.44101479 157.35452164 49.74871826 158.5100708 C56.40616352 183.51127795 63.08971616 208.50532315 69.80078125 233.4921875 C71.56003784 240.04293062 73.31916023 246.59370977 75.078125 253.14453125 C75.29502424 253.95227871 75.51192348 254.76002617 75.73539543 255.59225082 C81.20831031 275.97509242 86.66191104 296.36309952 92.1137352 316.75159073 C92.8478863 319.49711462 93.58209452 322.24262324 94.3163147 324.98812866 C94.55074563 325.86480792 94.78517656 326.74148718 95.02671146 327.64473248 C95.49151035 329.38282614 95.95636554 331.12090475 96.42127895 332.85896778 C97.53479899 337.02244949 98.64701163 341.18627117 99.75621033 345.35090637 C101.58511571 352.21416174 103.41844712 359.07562363 105.30444145 365.92345047 C106.06164309 368.67441236 106.81246897 371.4270963 107.56285477 374.17992401 C108.06763512 376.02057987 108.58222446 377.85853725 109.09725952 379.6963501 C112.47532133 392.1087737 114.2701027 402.90276137 107.80078125 414.4921875 C99.86835466 426.8506782 87.45571071 429.87905618 73.94213867 433.45166016 C71.68649962 434.05183558 69.43828636 434.67565521 67.18945312 435.30078125 C54.86211194 438.64049855 43.29585294 440.57137472 31.48828125 434.3046875 C20.91111474 427.16551135 17.28495927 416.89914095 14.1953125 404.95703125 C13.89655212 403.8395903 13.59779175 402.72214935 13.28997803 401.57084656 C12.46021049 398.45966595 11.64014715 395.34610948 10.82378006 392.23139191 C9.92271157 388.80421507 9.00849648 385.38054673 8.09545898 381.95654297 C6.67335975 376.61922207 5.2552466 371.28086719 3.84134769 365.9413681 C0.75264489 354.2787347 -2.36810068 342.62480569 -5.49609375 330.97265625 C-6.02177031 329.01416045 -6.54744576 327.05566436 -7.07312012 325.09716797 C-7.87745149 322.10058829 -8.68180791 319.10401535 -9.4862442 316.10746384 C-12.27197861 305.72961016 -15.05242485 295.35034153 -17.83241272 284.97094727 C-22.60328625 267.15836329 -27.37654931 249.34642147 -32.15234375 231.53515625 C-42.82462014 191.73205821 -53.49024435 151.92719574 -64.13671875 112.1171875 C-64.37495235 111.22640629 -64.61318596 110.33562508 -64.85863876 109.41785049 C-65.32774219 107.66381236 -65.7968291 105.9097698 -66.2658987 104.15572262 C-66.72161409 102.45167494 -67.17738638 100.74764247 -67.63321781 99.04362583 C-68.71811983 94.98736683 -69.80173999 90.9307748 -70.88233948 86.87336731 C-72.67166317 80.15851092 -74.4663409 73.44572057 -76.31184578 66.74604893 C-77.06874184 63.99643074 -77.81920043 61.24507406 -78.56919479 58.49356651 C-79.07546487 56.6473324 -79.59154186 54.80379596 -80.10806274 52.96040344 C-83.49055555 40.53063085 -85.30349874 29.72445379 -78.82421875 18.1171875 C-70.89179216 5.7586968 -58.47914821 2.73031882 -44.96557617 -0.84228516 C-42.70993712 -1.44246058 -40.46172386 -2.06628021 -38.21289062 -2.69140625 C-24.86114607 -6.30865442 -12.14976781 -8.20062089 0 0 Z " fill="#000000" transform="translate(369.51171875,39.6953125)"/>
<path d="M0 0 C1.5498056 -0.0099852 1.5498056 -0.0099852 3.13092041 -0.02017212 C5.31284817 -0.03027459 7.49480669 -0.03498989 9.67675781 -0.03466797 C12.99076144 -0.03902978 16.30342018 -0.07534487 19.6171875 -0.11328125 C21.74478715 -0.1191524 23.87239308 -0.12311979 26 -0.125 C27.46925934 -0.14655655 27.46925934 -0.14655655 28.96820068 -0.16854858 C38.05181265 -0.10914235 46.00313971 2.34609274 52.734375 8.6328125 C58.70793798 15.27687745 61.5124445 22.3379416 61.52289391 31.29323959 C61.52639998 31.97251617 61.52990605 32.65179274 61.53351837 33.35165346 C61.54281772 35.62642447 61.53791291 37.90093865 61.53305054 40.17572021 C61.53678754 41.82369388 61.54138926 43.47166578 61.54678118 45.11963487 C61.55902046 49.64742248 61.55874962 54.17513626 61.55639243 58.70293665 C61.5559845 63.58651526 61.56702119 68.47007013 61.57650757 73.3536377 C61.59312379 82.92140331 61.5986174 92.48914428 61.59973232 102.05692312 C61.60068253 109.83415847 61.60479147 117.61138569 61.61113358 125.38861847 C61.62874792 147.43752844 61.63797218 169.48641893 61.63647263 191.53533599 C61.63639272 192.72411456 61.6363128 193.91289314 61.63623047 195.13769531 C61.63614871 196.32792511 61.63606695 197.5181549 61.63598271 198.74445227 C61.63516982 218.03346367 61.65430765 237.32239698 61.6825072 256.61138579 C61.71123247 276.41622694 61.72504768 296.22102999 61.72331965 316.0258925 C61.72265561 327.14518166 61.72815401 338.26438896 61.74967575 349.38365936 C61.76788285 358.85111572 61.77223875 368.31845312 61.7586569 377.7859194 C61.75212482 382.61551873 61.75201879 387.44488981 61.7693634 392.27446747 C61.7850885 396.6986355 61.78223623 401.12239419 61.76479514 405.54655221 C61.761724 407.14411943 61.76536194 408.74171715 61.77651529 410.33924839 C61.849741 421.57480499 60.94161009 431.26808983 52.96875 439.8046875 C45.01015575 446.96012087 36.97505987 448.64833899 26.53125 448.671875 C25.49804626 448.6785318 24.46484253 448.6851886 23.40032959 448.69204712 C21.21840183 448.70214959 19.03644331 448.70686489 16.85449219 448.70654297 C13.54048856 448.71090478 10.22782982 448.74721987 6.9140625 448.78515625 C4.78646285 448.7910274 2.65885692 448.79499479 0.53125 448.796875 C-0.93800934 448.81843155 -0.93800934 448.81843155 -2.43695068 448.84042358 C-11.52056265 448.78101735 -19.47188971 446.32578226 -26.203125 440.0390625 C-32.17668798 433.39499755 -34.9811945 426.3339334 -34.99164391 417.37863541 C-34.99514998 416.69935883 -34.99865605 416.02008226 -35.00226837 415.32022154 C-35.01156772 413.04545053 -35.00666291 410.77093635 -35.00180054 408.49615479 C-35.00553754 406.84818112 -35.01013926 405.20020922 -35.01553118 403.55224013 C-35.02777046 399.02445252 -35.02749962 394.49673874 -35.02514243 389.96893835 C-35.0247345 385.08535974 -35.03577119 380.20180487 -35.04525757 375.3182373 C-35.06187379 365.75047169 -35.0673674 356.18273072 -35.06848232 346.61495188 C-35.06943253 338.83771653 -35.07354147 331.06048931 -35.07988358 323.28325653 C-35.09749792 301.23434656 -35.10672218 279.18545607 -35.10522263 257.13653901 C-35.10514272 255.94776044 -35.1050628 254.75898186 -35.10498047 253.53417969 C-35.10489871 252.34394989 -35.10481695 251.1537201 -35.10473271 249.92742273 C-35.10391982 230.63841133 -35.12305765 211.34947802 -35.1512572 192.06048921 C-35.17998247 172.25564806 -35.19379768 152.45084501 -35.19206965 132.6459825 C-35.19140561 121.52669334 -35.19690401 110.40748604 -35.21842575 99.28821564 C-35.23663285 89.82075928 -35.24098875 80.35342188 -35.2274069 70.8859556 C-35.22087482 66.05635627 -35.22076879 61.22698519 -35.2381134 56.39740753 C-35.2538385 51.9732395 -35.25098623 47.54948081 -35.23354514 43.12532279 C-35.230474 41.52775557 -35.23411194 39.93015785 -35.24526529 38.33262661 C-35.318491 27.09707001 -34.41036009 17.40378517 -26.4375 8.8671875 C-18.47890575 1.71175413 -10.44380987 0.02353601 0 0 Z " fill="#000000" transform="translate(194.734375,31.6640625)"/>
<path d="M0 0 C1.5498056 -0.0099852 1.5498056 -0.0099852 3.13092041 -0.02017212 C5.31284817 -0.03027459 7.49480669 -0.03498989 9.67675781 -0.03466797 C12.99076144 -0.03902978 16.30342018 -0.07534487 19.6171875 -0.11328125 C21.74478715 -0.1191524 23.87239308 -0.12311979 26 -0.125 C27.46925934 -0.14655655 27.46925934 -0.14655655 28.96820068 -0.16854858 C38.05181265 -0.10914235 46.00313971 2.34609274 52.734375 8.6328125 C58.70793798 15.27687745 61.5124445 22.3379416 61.52289391 31.29323959 C61.52639998 31.97251617 61.52990605 32.65179274 61.53351837 33.35165346 C61.54281772 35.62642447 61.53791291 37.90093865 61.53305054 40.17572021 C61.53678754 41.82369388 61.54138926 43.47166578 61.54678118 45.11963487 C61.55902046 49.64742248 61.55874962 54.17513626 61.55639243 58.70293665 C61.5559845 63.58651526 61.56702119 68.47007013 61.57650757 73.3536377 C61.59312379 82.92140331 61.5986174 92.48914428 61.59973232 102.05692312 C61.60068253 109.83415847 61.60479147 117.61138569 61.61113358 125.38861847 C61.62874792 147.43752844 61.63797218 169.48641893 61.63647263 191.53533599 C61.63639272 192.72411456 61.6363128 193.91289314 61.63623047 195.13769531 C61.63614871 196.32792511 61.63606695 197.5181549 61.63598271 198.74445227 C61.63516982 218.03346367 61.65430765 237.32239698 61.6825072 256.61138579 C61.71123247 276.41622694 61.72504768 296.22102999 61.72331965 316.0258925 C61.72265561 327.14518166 61.72815401 338.26438896 61.74967575 349.38365936 C61.76788285 358.85111572 61.77223875 368.31845312 61.7586569 377.7859194 C61.75212482 382.61551873 61.75201879 387.44488981 61.7693634 392.27446747 C61.7850885 396.6986355 61.78223623 401.12239419 61.76479514 405.54655221 C61.761724 407.14411943 61.76536194 408.74171715 61.77651529 410.33924839 C61.849741 421.57480499 60.94161009 431.26808983 52.96875 439.8046875 C45.01015575 446.96012087 36.97505987 448.64833899 26.53125 448.671875 C25.49804626 448.6785318 24.46484253 448.6851886 23.40032959 448.69204712 C21.21840183 448.70214959 19.03644331 448.70686489 16.85449219 448.70654297 C13.54048856 448.71090478 10.22782982 448.74721987 6.9140625 448.78515625 C4.78646285 448.7910274 2.65885692 448.79499479 0.53125 448.796875 C-0.93800934 448.81843155 -0.93800934 448.81843155 -2.43695068 448.84042358 C-11.52056265 448.78101735 -19.47188971 446.32578226 -26.203125 440.0390625 C-32.17668798 433.39499755 -34.9811945 426.3339334 -34.99164391 417.37863541 C-34.99514998 416.69935883 -34.99865605 416.02008226 -35.00226837 415.32022154 C-35.01156772 413.04545053 -35.00666291 410.77093635 -35.00180054 408.49615479 C-35.00553754 406.84818112 -35.01013926 405.20020922 -35.01553118 403.55224013 C-35.02777046 399.02445252 -35.02749962 394.49673874 -35.02514243 389.96893835 C-35.0247345 385.08535974 -35.03577119 380.20180487 -35.04525757 375.3182373 C-35.06187379 365.75047169 -35.0673674 356.18273072 -35.06848232 346.61495188 C-35.06943253 338.83771653 -35.07354147 331.06048931 -35.07988358 323.28325653 C-35.09749792 301.23434656 -35.10672218 279.18545607 -35.10522263 257.13653901 C-35.10514272 255.94776044 -35.1050628 254.75898186 -35.10498047 253.53417969 C-35.10489871 252.34394989 -35.10481695 251.1537201 -35.10473271 249.92742273 C-35.10391982 230.63841133 -35.12305765 211.34947802 -35.1512572 192.06048921 C-35.17998247 172.25564806 -35.19379768 152.45084501 -35.19206965 132.6459825 C-35.19140561 121.52669334 -35.19690401 110.40748604 -35.21842575 99.28821564 C-35.23663285 89.82075928 -35.24098875 80.35342188 -35.2274069 70.8859556 C-35.22087482 66.05635627 -35.22076879 61.22698519 -35.2381134 56.39740753 C-35.2538385 51.9732395 -35.25098623 47.54948081 -35.23354514 43.12532279 C-35.230474 41.52775557 -35.23411194 39.93015785 -35.24526529 38.33262661 C-35.318491 27.09707001 -34.41036009 17.40378517 -26.4375 8.8671875 C-18.47890575 1.71175413 -10.44380987 0.02353601 0 0 Z " fill="#000000" transform="translate(66.734375,31.6640625)"/>
</svg>
